# AST/ASF file generated using VICON BodyLanguage
# -----------------------------------------------
:version 1.10
:name VICON
:units
  mass 1.0
  length 0.45
  angle deg
:documentation
   .ast/.asf automatically generated from VICON data using
   VICON BodyBuilder and BodyLanguage model FoxedUp or BRILLIANT.MOD
:root
   order TX TY TZ RX RY RZ
   axis XYZ
   position 0 0 0  
   orientation 0 0 0 
:bonedata
  begin
     id 1 
     name lhipjoint
     direction 0.521452 -0.77106 0.36545 
     length 2.0933 
     axis 0 0 0  XYZ
  end
  begin
     id 2 
     name lfemur
     direction 0.34202 -0.939693 0  
     length 6.83441  
     axis 0 0 20  XYZ
    dof rx ry rz
    limits (-160.0 20.0)
           (-70.0 70.0)
           (-60.0 70.0)
  end
  begin
     id 3 
     name ltibia
     direction 0.34202 -0.939693 0   
     length 7.28749   
     axis 0 0 20   XYZ
    dof rx
    limits (-10.0 170.0)
  end
  begin
     id 4 
     name lfoot
     direction 0.100608 -0.276418 0.955757   
     length 1.52195   
     axis -90 7.62852e-016 20   XYZ
    dof rx rz
    limits (-45.0 90.0)
           (-70.0 20.0)
  end
  begin
     id 5 
     name ltoes
     direction 1.53558e-011 -4.21907e-011 1   
     length 0.770459   
     axis -90 7.62852e-016 20   XYZ
    dof rx
    limits (-90.0 20.0)
  end
  begin
     id 6 
     name rhipjoint
     direction -0.488071 -0.788702 0.373812   
     length 2.04648  
     axis 0 0 0  XYZ 
  end
  begin
     id 7 
     name rfemur
     direction -0.34202 -0.939693 0   
     length 6.92583   
     axis 0 0 -20   XYZ
    dof rx ry rz
    limits (-160.0 20.0)
           (-70.0 70.0)
           (-70.0 60.0)
  end
  begin
     id 8 
     name rtibia
     direction -0.34202 -0.939693 0   
     length 7.41043   
     axis 0 0 -20   XYZ
    dof rx
    limits (-10.0 170.0)
 end
 begin
     id 9 
     name rfoot
     direction -0.0784433 -0.215521 0.973343   
     length 1.67708  
     axis -90 -7.62852e-016 -20   XYZ
    dof rx rz
    limits (-45.0 90.0)
           (-20.0 70.0)
  end
  begin
     id 10 
     name rtoes
     direction -1.53551e-011 -4.21842e-011 1   
     length 0.849787   
     axis -90 -7.62852e-016 -20   XYZ
    dof rx
    limits (-90.0 20.0)
  end
  begin
     id 11 
     name lowerback
     direction -0.0122332 0.997575 -0.0685192   
     length 1.98724   
     axis 0 0 0   XYZ
    dof rx ry rz
    limits (-20.0 45.0)
           (-30.0 30.0)
           (-30.0 30.0)
  end
  begin
     id 12 
     name upperback
     direction 0.0182347 0.999724 -0.0148421   
     length 1.99029   
     axis 0 0 0   XYZ
    dof rx ry rz
    limits (-20.0 45.0)
           (-30.0 30.0)
           (-30.0 30.0)
  end
  begin
     id 13 
     name thorax
     direction 0.0242908 0.99956 0.0170184   
     length 1.99573   
     axis 0 0 0   XYZ
    dof rx ry rz
    limits (-20.0 45.0)
           (-30.0 30.0)
           (-30.0 30.0)
  end
  begin
     id 14 
     name lowerneck
     direction 0.0654488 0.985533 0.156338   
     length 1.4285   
     axis 0 0 0   XYZ
    dof rx ry rz
    limits (-20.0 45.0)
           (-30.0 30.0)
           (-30.0 30.0)
  end
  begin
     id 15 
     name upperneck
     direction -0.02953 0.998556 -0.0448842   
     length 1.44709   
     axis 0 0 0   XYZ
    dof rx ry rz
    limits (-20.0 45.0)
           (-30.0 30.0)
           (-30.0 30.0)
  end
  begin
     id 16
     name head
     direction -0.0155588 0.999386 -0.0314063  
     length 1.44689  
     axis 0 0 0   XYZ
    dof rx ry rz
    limits (-20.0 45.0)
           (-30.0 30.0)
           (-30.0 30.0)
  end
  begin
     id 17 
     name lclavicle
     direction 0.968229 0.236071 -0.0824755  
     length 3.60593  
     axis 0 0 0   XYZ
    dof ry rz
    limits (-20.0 10.0)
           (0.0 20.0)
  end
  begin
     id 18 
     name lhumerus
     direction 1 -4.48968e-011 7.8138e-029   
     length 5.06035   
     axis 180 -30 -90   XYZ
    dof rx ry rz
    limits (-60.0 90.0)
           (-90.0 90.0)
           (-90.0 90.0)
  end
  begin
     id 19
     name lradius
     direction 1 -4.48967e-011 9.02887e-028   
     length 3.1478   
     axis 180 -30 -90   XYZ
    dof rx
    limits (-10.0 170.0)
  end
  begin
     id 20
     name lwrist
     direction 1 -4.48961e-011 7.20928e-028   
     length 1.5739   
     axis -5.52449e-016 90 90   XYZ
    dof ry
    limits (-180.0 0.0)
 end
  begin
     id 21 
     name lhand
     direction 1 -4.48972e-011 1.44186e-027   
     length 0.606747   
     axis -9.20027e-016 90 90   XYZ
    dof rx rz
    limits (-90.0 90.0)
           (-45.0 45.0)
  end
  begin
     id 22 
     name lfingers
     direction 1 -4.48943e-011 2.88371e-027   
     length 0.489175   
     axis -1.84005e-015 90 90   XYZ
    dof rx
    limits (0.0 90.0)
  end
  begin
     id 23
     name lthumb
     direction 0.707107 -6.34917e-011 0.707107   
     length 0.70236   
     axis -90 45 2.85299e-015   XYZ
    dof rx rz
    limits (-45.0 45.0)
           (-45.0 45.0)
  end
  begin
     id 24 
     name rclavicle
     direction -0.978165 0.207816 0.0022268   
     length 3.35425  
     axis 0 0 0   XYZ 
    dof ry rz
    limits (-10.0 20.0)
           (-20.0 0.0)
  end
  begin
     id 25 
     name rhumerus
     direction -1 -4.48964e-011 -4.02159e-027  
     length 5.12273   
     axis 180 30 90   XYZ
    dof rx ry rz
    limits (-90.0 60.0)
           (-90.0 90.0)
           (-90.0 90.0)
  end
  begin
     id 26 
     name rradius
     direction -1 -4.48966e-011 1.62746e-027   
     length 3.422   
     axis 180 30 90   XYZ
    dof rx
    limits (-10.0 170.0)
  end
  begin
     id 27 
     name rwrist
     direction -1 -4.4896e-011 7.20928e-028   
     length 1.711   
     axis -5.52449e-016 -90 -90   XYZ
    dof ry
    limits (-180.0 0.0)
  end
  begin
     id 28
     name rhand
     direction -1 -4.48979e-011 1.44186e-027   
     length 0.704599   
     axis -9.20027e-016 -90 -90   XYZ
    dof rx rz
    limits (-90.0 90.0)
           (-45.0 45.0)
  end
  begin
     id 29
     name rfingers
     direction -1 -4.48962e-011 2.88371e-027   
     length 0.568066   
     axis -1.84005e-015 -90 -90   XYZ
    dof rx
    limits (0.0 90.0)
  end
  begin
     id 30
     name rthumb
     direction -0.707107 -6.34949e-011 0.707107   
     length 0.815633   
     axis -90 -45 -2.85299e-015   XYZ
    dof rx rz
    limits (-45.0 45.0)
           (-45.0 45.0)
  end
:hierarchy
  begin
    root lhipjoint rhipjoint lowerback
    lhipjoint lfemur
    lfemur ltibia
    ltibia lfoot
    lfoot ltoes
    rhipjoint rfemur
    rfemur rtibia
    rtibia rfoot
    rfoot rtoes
    lowerback upperback
    upperback thorax
    thorax lowerneck lclavicle rclavicle
    lowerneck upperneck
    upperneck head
    lclavicle lhumerus
    lhumerus lradius
    lradius lwrist
    lwrist lhand lthumb
    lhand lfingers
    rclavicle rhumerus
    rhumerus rradius
    rradius rwrist
    rwrist rhand rthumb
    rhand rfingers
  end

#!OML:ASF E:\id_vita\Project 1\Capture day 1\Session 1\Male1.ASF
:FULLY-SPECIFIED
:DEGREES
153
root -19.0923 16.2428 3.08813 -170.631 52.2762 -177.651
lowerback -3.41608 -4.35867 -3.88558
upperback 3.51066 -5.7565 5.63919
thorax 6.60335 -3.12578 7.60878
lowerneck -6.42523 -11.9417 0.141653
upperneck 34.696 -16.9041 4.80055
head 13.1699 -6.13082 -0.174185
rclavicle -7.95139e-016 1.27222e-014
rhumerus -28.4643 -40.371 -66.4447
rradius 11.6652
rwrist 32.3842
rhand -15.9642 31.6087
rfingers 7.12502
rthumb 10.2346 1.87772
lclavicle -7.95139e-016 1.27222e-014
lhumerus -25.1939 22.9428 82.8975
lradius 17.3317
lwrist -4.97146
lhand -11.2482 41.9333
lfingers 7.12502
lthumb 14.7814 71.3862
rfemur -15.706 0.239989 23.9976
rtibia 23.5112
rfoot -12.8391 -9.54748
rtoes -5.61362
lfemur -0.931845 5.97363 -13.4625
ltibia 33.1226
lfoot 5.73636 30.4754
ltoes 34.6586
154
root -19.0117 16.2421 3.08973 -170.683 52.7621 -177.419
lowerback -3.25212 -4.36927 -3.81453
upperback 3.62665 -5.77465 5.58588
thorax 6.62204 -3.13256 7.51621
lowerneck -6.58891 -11.8085 0.0597654
upperneck 34.9603 -16.7415 4.84621
head 13.3296 -6.03893 -0.138007
rclavicle 4.17448e-015 -1.27222e-014
rhumerus -27.9358 -39.3807 -67.2571
rradius 11.7622
rwrist 31.5982
rhand -16.0405 31.5206
rfingers 7.12502
rthumb 10.1611 1.78601
lclavicle 4.17448e-015 -1.27222e-014
lhumerus -25.5441 23.5749 82.4441
lradius 17.1182
lwrist -5.49865
lhand -11.276 41.711
lfingers 7.12502
lthumb 14.7546 71.1659
rfemur -15.0205 0.19257 24.3335
rtibia 23.092
rfoot -13.0661 -9.03647
rtoes -5.47313
lfemur -1.5328 6.1744 -13.0935
ltibia 34.9923
lfoot 6.56984 29.1307
ltoes 35.736
155
root -18.9296 16.2422 3.09113 -170.506 53.2148 -176.998
lowerback -3.12029 -4.37275 -3.61024
upperback 3.69646 -5.78928 5.55806
thorax 6.59693 -3.12885 7.37449
lowerneck -6.79337 -11.6585 0.0138135
upperneck 35.2907 -16.5405 4.81787
head 13.5143 -5.92854 -0.131987
rclavicle -9.28324e-014 -9.54166e-015
rhumerus -27.4884 -38.3886 -68.0115
rradius 11.9099
rwrist 30.871
rhand -16.0915 31.4818
rfingers 7.12502
rthumb 10.1119 1.74478
lclavicle -9.28324e-014 -9.54166e-015
lhumerus -25.932 24.1212 82.009
lradius 16.9424
lwrist -5.98859
lhand -11.3441 41.4019
lfingers 7.12502
lthumb 14.689 70.8616
rfemur -14.3931 0.314892 24.7862
rtibia 22.6776
rfoot -13.2435 -8.72522
rtoes -5.51245
lfemur -2.21816 6.45828 -12.553
ltibia 36.9361
lfoot 6.8324 28.421
ltoes 32.833
156
root -18.8517 16.2404 3.09368 -170.002 53.7307 -176.282
lowerback -3.03791 -4.30314 -3.27325
upperback 3.76426 -5.71172 5.5995
thorax 6.57682 -3.07318 7.2396
lowerneck -7.02019 -11.5244 0.0403494
upperneck 35.4731 -16.3882 4.82999
head 13.6383 -5.83765 -0.127847
rclavicle -8.70677e-014 -2.94201e-014
rhumerus -27.0735 -36.9051 -68.9428
rradius 12.3588
rwrist 29.4432
rhand -16.2114 31.3494
rfingers 7.12502
rthumb 9.99618 1.60674
lclavicle -8.70677e-014 -2.94201e-014
lhumerus -26.1843 24.0785 81.9018
lradius 16.8453
lwrist -5.9303
lhand -11.3104 41.4749
lfingers 7.12502
lthumb 14.7214 70.9322
rfemur -13.8581 0.597902 25.4121
rtibia 22.2281
rfoot -13.1976 -8.47262
rtoes -5.68418
lfemur -3.00973 6.74368 -11.8423
ltibia 38.9178
lfoot 6.47097 26.0733
ltoes 31.1019
157
root -18.7782 16.2418 3.09411 -169.703 54.1576 -175.84
lowerback -2.94801 -4.28621 -3.05945
upperback 3.81412 -5.69859 5.58727
thorax 6.55114 -3.05504 7.11044
lowerneck -7.13971 -11.4074 0.082681
upperneck 35.5518 -16.2555 4.85074
head 13.6931 -5.76499 -0.117106
rclavicle 6.95746e-014 -1.59028e-015
rhumerus -26.5935 -34.9313 -70.1244
rradius 12.983
rwrist 27.2945
rhand -16.3991 31.1024
rfingers 7.12502
rthumb 9.81517 1.35121
lclavicle 6.95746e-014 -1.59028e-015
lhumerus -26.4748 24.0242 81.7496
lradius 16.7131
lwrist -5.80064
lhand -11.4126 41.6936
lfingers 7.12502
lthumb 14.6229 71.158
rfemur -13.3102 0.818145 25.8399
rtibia 21.7156
rfoot -13.1023 -8.24194
rtoes -5.90321
lfemur -3.88665 6.7844 -11.3516
ltibia 40.9072
lfoot 5.73434 22.5787
ltoes 27.529
158
root -18.709 16.2461 3.0901 -169.768 54.4702 -175.811
lowerback -2.75912 -4.30291 -3.0377
upperback 3.81923 -5.72063 5.52404
thorax 6.4411 -3.06163 7.03931
lowerneck -7.31812 -11.2971 0.130675
upperneck 35.781 -16.0955 4.73608
head 13.8108 -5.68254 -0.159737
rclavicle 7.77248e-014 -5.48646e-014
rhumerus -26.1088 -32.9345 -71.1712
rradius 13.5585
rwrist 25.2537
rhand -16.5207 30.9671
rfingers 7.12502
rthumb 9.69778 1.21033
lclavicle 7.77248e-014 -5.48646e-014
lhumerus -26.8708 24.5762 81.3829
lradius 16.4418
lwrist -6.35396
lhand -11.6021 41.7576
lfingers 7.12502
lthumb 14.4404 71.2352
rfemur -12.7133 0.826707 25.9872
rtibia 21.1903
rfoot -13.3017 -7.94204
rtoes -5.32758
lfemur -4.78305 6.6171 -11.1585
ltibia 42.8693
lfoot 4.89548 18.9561
ltoes 24.5332
159
root -18.6397 16.2492 3.08759 -169.705 54.7761 -175.563
lowerback -2.49844 -4.28296 -2.95446
upperback 3.84056 -5.69556 5.5305
thorax 6.30167 -3.04193 7.0183
lowerneck -7.58067 -11.1603 0.34056
upperneck 36.0593 -15.8809 4.46143
head 13.9325 -5.57022 -0.286258
rclavicle 7.81224e-014 5.80451e-014
rhumerus -25.7914 -31.545 -71.7746
rradius 13.9601
rwrist 24.095
rhand -16.6049 31.0043
rfingers 7.12502
rthumb 9.61657 1.24381
lclavicle 7.81224e-014 5.80451e-014
lhumerus -27.2946 25.107 81.0776
lradius 16.2563
lwrist -6.9782
lhand -11.5032 41.8914
lfingers 7.12502
lthumb 14.5357 71.3621
rfemur -12.0799 0.937676 26.2763
rtibia 20.7294
rfoot -13.499 -7.75425
rtoes -4.40197
lfemur -5.69346 6.51459 -10.853
ltibia 44.7999
lfoot 4.22132 15.1886
ltoes 21.7529
160
root -18.5689 16.2492 3.08841 -169.634 55.09 -175.282
lowerback -2.24418 -4.24734 -2.93998
upperback 3.87896 -5.64656 5.55836
thorax 6.1909 -3.01509 7.06125
lowerneck -7.51488 -11.0257 0.450934
upperneck 35.9177 -15.7245 4.53411
head 13.8458 -5.49315 -0.247242
rclavicle 1.3418e-013 1.82882e-014
rhumerus -25.6109 -30.3849 -72.2191
rradius 14.2635
rwrist 23.1312
rhand -16.6973 30.9294
rfingers 7.12502
rthumb 9.52739 1.16475
lclavicle 1.3418e-013 1.82882e-014
lhumerus -27.7522 25.1878 80.9159
lradius 16.2096
lwrist -7.1226
lhand -11.3411 41.8507
lfingers 7.12502
lthumb 14.6919 71.3101
rfemur -11.4889 1.25021 26.5838
rtibia 20.4033
rfoot -13.4467 -7.72896
rtoes -5.15968
lfemur -6.63432 6.40962 -10.5742
ltibia 46.6818
lfoot -2.34683 10.6291
ltoes 0.161905
161
root -18.4996 16.2465 3.08954 -169.701 55.4697 -175.226
lowerback -2.13362 -4.19005 -3.09538
upperback 3.98875 -5.56333 5.55686
thorax 6.24876 -2.98439 7.16176
lowerneck -7.39099 -10.9093 0.344142
upperneck 35.4816 -15.6649 4.96933
head 13.6814 -5.46581 -0.0455193
rclavicle 4.09496e-014 3.02153e-014
rhumerus -25.2602 -29.2622 -72.7598
rradius 14.6121
rwrist 22.1001
rhand -16.8087 30.7586
rfingers 7.12502
rthumb 9.41993 0.98914
lclavicle 4.09496e-014 3.02153e-014
lhumerus -27.9987 25.5556 80.7534
lradius 16.0298
lwrist -7.5373
lhand -11.3907 41.854
lfingers 7.12502
lthumb 14.644 71.3169
rfemur -11.0504 1.60101 26.73
rtibia 20.2493
rfoot -13.3917 -7.68404
rtoes -4.77822
lfemur -7.62559 6.29065 -10.503
ltibia 48.5348
lfoot -0.19682 9.41471
ltoes 13.9636
162
root -18.4307 16.2415 3.0913 -169.943 55.9626 -175.435
lowerback -2.0913 -4.1292 -3.40229
upperback 4.10073 -5.46999 5.49357
thorax 6.35535 -2.95751 7.27858
lowerneck -7.46684 -10.8632 0.31316
upperneck 35.3024 -15.6629 5.13571
head 13.6398 -5.46482 0.0178131
rclavicle 4.37326e-014 2.38542e-015
rhumerus -24.8881 -28.3596 -73.2697
rradius 15.0255
rwrist 21.3821
rhand -16.9281 30.7329
rfingers 7.12502
rthumb 9.30469 0.958205
lclavicle 4.37326e-014 2.38542e-015
lhumerus -28.197 26.1404 80.4974
lradius 15.8097
lwrist -8.11172
lhand -11.4329 42.2798
lfingers 7.12502
lthumb 14.6034 71.7457
rfemur -10.7446 2.04212 26.6988
rtibia 20.2817
rfoot -13.7547 -7.62923
rtoes -3.70405
lfemur -8.64215 6.25524 -10.6419
ltibia 50.3207
lfoot -2.97484 7.33777
ltoes 10.9853
163
root -18.3778 16.2327 3.08711 -170.08 56.492 -175.576
lowerback -1.88074 -4.0535 -3.44612
upperback 4.11098 -5.36563 5.39537
thorax 6.22149 -2.90323 7.22033
lowerneck -7.67849 -10.847 0.362574
upperneck 35.4239 -15.6524 5.03702
head 13.7236 -5.45559 -0.0413537
rclavicle 5.60573e-014 6.36111e-015
rhumerus -24.596 -27.276 -73.7731
rradius 15.378
rwrist 20.5969
rhand -17.0469 30.7371
rfingers 7.12502
rthumb 9.1901 0.957325
lclavicle 5.60573e-014 6.36111e-015
lhumerus -28.5816 26.6668 80.1331
lradius 15.6241
lwrist -8.56591
lhand -11.4871 42.4361
lfingers 7.12502
lthumb 14.5512 71.9057
rfemur -10.6315 2.36863 26.6543
rtibia 20.432
rfoot -14.2219 -7.44327
rtoes -1.73281
lfemur -9.81431 6.23323 -10.8634
ltibia 52.0481
lfoot -4.80595 5.06144
ltoes 6.46398
164
root -18.316 16.2203 3.08621 -170.25 56.7478 -175.602
lowerback -1.63702 -4.054 -3.51729
upperback 4.17115 -5.36289 5.35405
thorax 6.14824 -2.90364 7.23076
lowerneck -7.90377 -10.7273 0.425362
upperneck 35.5383 -15.4992 4.96388
head 13.8038 -5.37828 -0.072876
rclavicle 1.72943e-014 3.97569e-015
rhumerus -24.3326 -25.8062 -74.3757
rradius 15.857
rwrist 19.3046
rhand -17.1752 30.5635
rfingers 7.12502
rthumb 9.06633 0.778307
lclavicle 1.72943e-014 3.97569e-015
lhumerus -28.9621 27.4774 79.6439
lradius 15.2892
lwrist -9.35772
lhand -11.5272 42.2052
lfingers 7.12502
lthumb 14.5125 71.6776
rfemur -10.3531 2.73238 26.7742
rtibia 20.637
rfoot -14.3726 -7.72682
rtoes -1.09251
lfemur -10.8879 6.11137 -10.9044
ltibia 53.6784
lfoot -6.60829 2.60789
ltoes 0.940982
165
root -18.2514 16.2116 3.08334 -170.448 56.9845 -175.63
lowerback -1.45539 -4.07588 -3.55629
upperback 4.26748 -5.38955 5.28145
thorax 6.14714 -2.91864 7.18168
lowerneck -7.86922 -10.5924 0.420647
upperneck 35.3879 -15.3568 5.13252
head 13.7431 -5.31073 0.0153611
rclavicle 5.1684e-015 2.62396e-014
rhumerus -24.1532 -24.4084 -74.9816
rradius 16.5199
rwrist 17.9732
rhand -17.3108 30.3925
rfingers 7.12502
rthumb 8.93542 0.601731
lclavicle 5.1684e-015 2.62396e-014
lhumerus -29.3481 28.0335 79.2014
lradius 15.09
lwrist -9.94533
lhand -11.3933 41.9322
lfingers 7.12502
lthumb 14.6416 71.3953
rfemur -10.0072 3.12484 26.8929
rtibia 20.8429
rfoot -14.6554 -8.01263
rtoes -0.190531
lfemur -11.8936 5.81195 -11.0103
ltibia 55.1942
lfoot -8.48096 0.838869
ltoes -1.64827
166
root -18.1895 16.2016 3.07754 -170.631 57.3459 -175.677
lowerback -1.28238 -4.04587 -3.55536
upperback 4.35225 -5.34729 5.15924
thorax 6.1175 -2.89544 7.0621
lowerneck -7.89095 -10.541 0.477732
upperneck 35.2757 -15.3552 5.29774
head 13.7118 -5.29213 0.0686365
rclavicle -2.90226e-014 -1.82882e-014
rhumerus -23.9819 -23.4412 -75.4682
rradius 17.0976
rwrist 16.998
rhand -17.1575 30.2631
rfingers 7.12502
rthumb 9.08333 0.478737
lclavicle -2.90226e-014 -1.82882e-014
lhumerus -29.7028 27.9494 78.9749
lradius 15.0861
lwrist -9.87481
lhand -11.2552 41.8181
lfingers 7.12502
lthumb 14.7747 71.2715
rfemur -9.65806 3.64007 26.9495
rtibia 20.9657
rfoot -15.0707 -8.06761
rtoes 0.846673
lfemur -12.9338 5.46321 -11.2468
ltibia 56.5878
lfoot -10.0301 -0.793234
ltoes -4.32764
167
root -18.1279 16.1896 3.07024 -170.878 57.7837 -175.84
lowerback -1.0061 -3.98319 -3.68674
upperback 4.31662 -5.25963 5.06186
thorax 5.90956 -2.85137 7.05779
lowerneck -8.21414 -10.5542 0.582088
upperneck 35.6022 -15.3967 5.1512
head 13.9059 -5.28169 -0.0316903
rclavicle 2.127e-014 4.92986e-014
rhumerus -24.0022 -22.7499 -75.726
rradius 17.5609
rwrist 16.4247
rhand -17.219 30.2654
rfingers 7.12502
rthumb 9.024 0.478428
lclavicle 2.127e-014 4.92986e-014
lhumerus -30.2063 27.8859 78.7285
lradius 15.0284
lwrist -9.76492
lhand -11.2228 42.0406
lfingers 7.12502
lthumb 14.8059 71.4917
rfemur -9.30421 4.09839 26.9266
rtibia 21.0577
rfoot -15.502 -8.03676
rtoes 2.12401
lfemur -14.0121 5.33343 -11.5769
ltibia 57.8494
lfoot -11.3986 -2.34475
ltoes -1.75751
